<svg xmlns="http://www.w3.org/2000/svg" width="430" height="430" style="width:100%;height:100%;transform:translate3d(0,0,0);content-visibility:visible" viewBox="0 0 430 430"><defs><clipPath id="g"><path d="M0 0h430v430H0z"/></clipPath><clipPath id="j"><path d="M0 0h430v430H0z"/></clipPath><clipPath id="f"><path d="M0 0h430v430H0z"/></clipPath><clipPath id="h"><path d="M0 0h430v430H0z"/></clipPath><filter id="a" width="100%" height="100%" x="0%" y="0%" filterUnits="objectBoundingBox"><feComponentTransfer in="SourceGraphic"><feFuncA tableValues="1.0 0.0" type="table"/></feComponentTransfer></filter><filter id="d" width="100%" height="100%" x="0%" y="0%" filterUnits="objectBoundingBox"><feComponentTransfer in="SourceGraphic"><feFuncA tableValues="1.0 0.0" type="table"/></feComponentTransfer></filter><mask id="k" mask-type="alpha"><g filter="url(#a)"><path fill="#fff" d="M0 0h430v430H0z" opacity="0"/><use xmlns:ns1="http://www.w3.org/1999/xlink" ns1:href="#b"/></g></mask><mask id="i" mask-type="alpha"><g filter="url(#d)"><path fill="#fff" d="M0 0h430v430H0z" opacity="0"/><use xmlns:ns2="http://www.w3.org/1999/xlink" ns2:href="#e"/></g></mask><path id="e" fill="red" d="M-48.181 17.016v39.74c17.073 17.073 79.506 17.073 96.579 0v-39.83M0 38.013 87.243 0 0-38.013-87.243 0z" style="display:block" transform="translate(320.637 323.386)"/><g id="b" clip-path="url(#f)" style="display:none"><path style="display:none"/><path style="display:none"/></g></defs><g clip-path="url(#g)"><g clip-path="url(#h)" style="display:block"><g mask="url(#i)" style="display:block"><path fill="none" stroke="#121331" stroke-linecap="round" stroke-linejoin="round" stroke-width="12" d="M140 100V70c0-11.046 8.954-20 20-20h110c11.046 0 20 8.954 20 20v30m-27 135v40h-90v-40m217 0H40m350 87.565V130c0-16.569-13.431-30-30-30H70c-16.569 0-30 13.431-30 30v200c0 16.569 13.431 30 30 30h286.148" class="primary"/></g><g fill="none" stroke="#08A88A" stroke-linecap="round" stroke-linejoin="round" style="display:block"><path stroke-width="12" d="M406.88 324.386c0 15.984-.38 47.614 0 47.952" class="secondary"/><path stroke-width="25" d="M407.097 372.338h-.434" class="secondary"/><path stroke-width="12" d="M368.035 341.312v39.83c-17.073 17.073-79.506 17.073-96.579 0v-39.74m48.181 20.997 87.243-38.013-87.243-38.013-87.243 38.013z" class="secondary"/></g></g><g fill="none" clip-path="url(#j)" style="display:none"><g mask="url(#k)" style="display:none"><path class="primary"/><path class="primary"/></g><g style="display:none"><path class="secondary"/><path class="secondary"/><path class="secondary"/></g><path class="secondary" style="display:none"/><path class="secondary" style="display:none"/></g></g></svg>